<svg id="_x31__x2C_5_px" enable-background="new 0 0 24 24" height="512" viewBox="0 0 24 24" width="512" xmlns="http://www.w3.org/2000/svg"><path d="m8.036 23c-2.016 0-3.91-.8-5.334-2.252-2.93-2.989-2.93-7.852 0-10.84l7.517-7.669c.783-.799 1.825-1.239 2.935-1.239 1.109 0 2.151.44 2.935 1.239 1.607 1.639 1.607 4.306 0 5.945l-7.901 8.061c-.29.296-.765.3-1.061.011-.296-.29-.301-.765-.011-1.061l7.901-8.061c1.039-1.06 1.039-2.785 0-3.845-.998-1.017-2.73-1.017-3.727 0l-7.517 7.669c-2.362 2.41-2.362 6.33 0 8.74 1.139 1.162 2.653 1.802 4.263 1.802s3.124-.64 4.263-1.802l9.916-10.116c.29-.296.765-.301 1.061-.011s.301.765.011 1.061l-9.917 10.116c-1.424 1.452-3.319 2.252-5.334 2.252z"/></svg>